# xmcd CD database file
#
# Track frame offsets:
#	150
#	32605
#	53790
#	73405
#	104725
#	122450
#	154960
#	186875
#	204420
#	238275
#	264570
#	297475
#	323390
#
# Disc length: 4493 seconds
#
# Revision: 0
# Processed by: cddbd v1.5.2PL0 Copyright (c) Steve Scherf et al.
# Submitted via: CDex 1.51
#
DISCID=c5118b0d
DTITLE=Baary White nr 2 - The Ultimate collection
DYEAR=2003
DGENRE=Blues
TTITLE0=My sweet summer Suite
TTITLE1=Don't make me wait too long
TTITLE2=I 'm qualified to satisfy you
TTITLE3=It's Ectacy when you lay down next to me
TTITLE4=Oh what a night for dancing
TTITLE5=Playing your game, baby
TTITLE6=Just the way you are
TTITLE7=It's only love doing it's thing
TTITLE8=Sha la la Means,  I  love  you
TTITLE9=Beware
TTITLE10=Never never gonna give ya up
TTITLE11=All of me
TTITLE12=Let the music play
EXTD=YEAR: 2003
EXTT0=
EXTT1=
EXTT2=
EXTT3=
EXTT4=
EXTT5=
EXTT6=
EXTT7=
EXTT8=
EXTT9=
EXTT10=
EXTT11=
EXTT12=
PLAYORDER=
